name Walk9.mot
datacolumns 19
datarows 12
range 4.37000000 4.38100000
endheader

                time	   L_ground_force_vx	   L_ground_force_vy	   L_ground_force_vz	   L_ground_force_px	   L_ground_force_py	   L_ground_force_pz	   R_ground_force_vx	   R_ground_force_vy	   R_ground_force_vz	   R_ground_force_px	   R_ground_force_py	   R_ground_force_pz	   L_ground_torque_x	   L_ground_torque_y	   L_ground_torque_z	   R_ground_torque_x	   R_ground_torque_y	   R_ground_torque_z	
          4.37000000	          0.00000000	          0.00000000	          0.00000000	          0.00000000	          0.00000000	          0.00000000	          7.73093305	         17.98714335	          2.74773701	          0.26789366	          0.00000000	          0.04406600	          0.00000000	          0.00000000	          0.00000000	          0.00000000	         -1.40303434	          0.00000000	
          4.37100000	          0.00000000	          0.00000000	          0.00000000	         -0.00000000	          0.00000000	          0.00000000	          7.04043316	         15.74017145	          2.67215047	          0.25535498	          0.00000000	          0.04200148	          0.00000000	          0.00000000	          0.00000000	          0.00000000	         -1.27134407	          0.00000000	
          4.37200000	          0.00000000	          0.00000000	          0.00000000	         -0.00000000	          0.00000000	         -0.00000000	          6.38203828	         13.62476801	          2.59289317	          0.24291747	          0.00000000	          0.03995378	          0.00000000	          0.00000000	          0.00000000	          0.00000000	         -1.14604654	          0.00000000	
          4.37300000	          0.00000000	          0.00000000	          0.00000000	         -0.00000000	          0.00000000	         -0.00000000	          5.75550664	         11.63774015	          2.51057672	          0.23061951	          0.00000000	          0.03792921	          0.00000000	          0.00000000	          0.00000000	          0.00000000	         -1.02707168	          0.00000000	
          4.37400000	          0.00000000	          0.00000000	          0.00000000	         -0.00000000	          0.00000000	         -0.00000000	          5.16049661	          9.77568137	          2.42577227	          0.21849573	          0.00000000	          0.03593345	          0.00000000	          0.00000000	          0.00000000	          0.00000000	         -0.91433149	          0.00000000	
          4.37500000	          0.00000000	          0.00000000	          0.00000000	         -0.00000000	          0.00000000	         -0.00000000	          4.59657649	          8.03500256	          2.33901182	          0.20657711	          0.00000000	          0.03397160	          0.00000000	          0.00000000	          0.00000000	          0.00000000	         -0.80772190	          0.00000000	
          4.37600000	          0.00000000	          0.00000000	          0.00000000	         -0.00000000	          0.00000000	         -0.00000000	          4.06323382	          6.41196110	          2.25078953	          0.19489126	          0.00000000	          0.03204818	          0.00000000	          0.00000000	          0.00000000	          0.00000000	         -0.70712451	          0.00000000	
          4.37700000	          0.00000000	          0.00000000	          0.00000000	         -0.00000000	          0.00000000	         -0.00000000	          3.55988415	          4.90268807	          2.16156305	          0.18346253	          0.00000000	          0.03016719	          0.00000000	          0.00000000	          0.00000000	          0.00000000	         -0.61240827	          0.00000000	
          4.37800000	          0.00000000	          0.00000000	          0.00000000	         -0.00000000	          0.00000000	         -0.00000000	          3.08587939	          3.50321361	          2.07175493	          0.17231227	          0.00000000	          0.02833214	          0.00000000	          0.00000000	          0.00000000	          0.00000000	         -0.52343105	          0.00000000	
          4.37900000	          0.00000000	          0.00000000	          0.00000000	         -0.00000000	          0.00000000	         -0.00000000	          2.64051567	          2.20949047	          1.98175400	          0.16145892	          0.00000000	          0.02654605	          0.00000000	          0.00000000	          0.00000000	          0.00000000	         -0.44004111	          0.00000000	
          4.38000000	          0.00000000	          0.00000000	          0.00000000	         -0.00000000	          0.00000000	         -0.00000000	          2.22304073	          1.01741591	          1.89191673	          0.15091824	          0.00000000	          0.02481151	          0.00000000	          0.00000000	          0.00000000	          0.00000000	         -0.36207853	          0.00000000	
          4.38100000	          0.00000000	          0.00000000	         -0.00000000	         -0.00000000	          0.00000000	         -0.00000000	          1.83266090	         -0.07714809	          1.80256868	          0.14070350	          0.00000000	          0.02313069	          0.00000000	          0.00000000	          0.00000000	          0.00000000	         -0.28937644	          0.00000000	
